<mxfile host="app.diagrams.net" agent="Mozilla/5.0 (Windows NT 10.0; Win64; x64) AppleWebKit/537.36 (KHTML, like Gecko) Chrome/131.0.0.0 Safari/537.36" version="25.0.3">
  <diagram name="PÃ¡gina-1" id="XnfMSsqKeOomwI2X4mqS">
    <mxGraphModel dx="1050" dy="522" grid="1" gridSize="10" guides="1" tooltips="1" connect="1" arrows="1" fold="1" page="1" pageScale="1" pageWidth="827" pageHeight="1169" math="0" shadow="0">
      <root>
        <mxCell id="0" />
        <mxCell id="1" parent="0" />
        <mxCell id="9CIfiXQJs4M4mhII0K4a-1" value="&lt;div&gt;&lt;font color=&quot;#0000ff&quot; face=&quot;Courier New&quot; style=&quot;font-size: 14px;&quot;&gt;P -&amp;gt; B P&lt;/font&gt;&lt;/div&gt;&lt;div&gt;&lt;font color=&quot;#0000ff&quot; face=&quot;Courier New&quot; style=&quot;font-size: 14px;&quot;&gt;P -&amp;gt; F P&lt;/font&gt;&lt;/div&gt;&lt;div&gt;&lt;font color=&quot;#0000ff&quot; face=&quot;Courier New&quot; style=&quot;font-size: 14px;&quot;&gt;P -&amp;gt; lambda&lt;/font&gt;&lt;/div&gt;&lt;div&gt;&lt;font color=&quot;#0000ff&quot; face=&quot;Courier New&quot; style=&quot;font-size: 14px;&quot;&gt;B -&amp;gt; var T id ;&lt;/font&gt;&lt;/div&gt;&lt;div&gt;&lt;font color=&quot;#0000ff&quot; face=&quot;Courier New&quot; style=&quot;font-size: 14px;&quot;&gt;B -&amp;gt; if ( E ) { C } I&lt;/font&gt;&lt;/div&gt;&lt;div&gt;&lt;font color=&quot;#0000ff&quot; face=&quot;Courier New&quot; style=&quot;font-size: 14px;&quot;&gt;B -&amp;gt; if ( E ) S&lt;/font&gt;&lt;/div&gt;&lt;div&gt;&lt;font color=&quot;#0000ff&quot; face=&quot;Courier New&quot; style=&quot;font-size: 14px;&quot;&gt;B -&amp;gt; S&lt;/font&gt;&lt;/div&gt;&lt;div&gt;&lt;font color=&quot;#0000ff&quot; face=&quot;Courier New&quot; style=&quot;font-size: 14px;&quot;&gt;F -&amp;gt; function F1 F2 F3 { C }&lt;/font&gt;&lt;/div&gt;&lt;div&gt;&lt;font color=&quot;#0000ff&quot; face=&quot;Courier New&quot; style=&quot;font-size: 14px;&quot;&gt;F1 -&amp;gt; H&lt;/font&gt;&lt;/div&gt;&lt;div&gt;&lt;font color=&quot;#0000ff&quot; face=&quot;Courier New&quot; style=&quot;font-size: 14px;&quot;&gt;F2 -&amp;gt; id&lt;/font&gt;&lt;/div&gt;&lt;div&gt;&lt;font color=&quot;#0000ff&quot; face=&quot;Courier New&quot; style=&quot;font-size: 14px;&quot;&gt;F3 -&amp;gt; ( A )&lt;/font&gt;&lt;/div&gt;&lt;div&gt;&lt;font color=&quot;#0000ff&quot; face=&quot;Courier New&quot; style=&quot;font-size: 14px;&quot;&gt;C -&amp;gt; B C&lt;/font&gt;&lt;/div&gt;&lt;div&gt;&lt;font color=&quot;#0000ff&quot; face=&quot;Courier New&quot; style=&quot;font-size: 14px;&quot;&gt;C -&amp;gt; lambda&lt;/font&gt;&lt;/div&gt;&lt;div&gt;&lt;font color=&quot;#0000ff&quot; face=&quot;Courier New&quot; style=&quot;font-size: 14px;&quot;&gt;H -&amp;gt; T&amp;nbsp;&lt;/font&gt;&lt;/div&gt;&lt;div&gt;&lt;font color=&quot;#0000ff&quot; face=&quot;Courier New&quot; style=&quot;font-size: 14px;&quot;&gt;H -&amp;gt; void&lt;/font&gt;&lt;/div&gt;&lt;div&gt;&lt;font color=&quot;#0000ff&quot; face=&quot;Courier New&quot; style=&quot;font-size: 14px;&quot;&gt;A -&amp;gt; T id K&lt;/font&gt;&lt;/div&gt;&lt;div&gt;&lt;font color=&quot;#0000ff&quot; face=&quot;Courier New&quot; style=&quot;font-size: 14px;&quot;&gt;A -&amp;gt; void&lt;/font&gt;&lt;/div&gt;&lt;div&gt;&lt;font color=&quot;#0000ff&quot; face=&quot;Courier New&quot; style=&quot;font-size: 14px;&quot;&gt;K -&amp;gt; , T id K&lt;/font&gt;&lt;/div&gt;&lt;div&gt;&lt;font color=&quot;#0000ff&quot; face=&quot;Courier New&quot; style=&quot;font-size: 14px;&quot;&gt;K -&amp;gt; lambda&lt;/font&gt;&lt;/div&gt;&lt;div&gt;&lt;font color=&quot;#0000ff&quot; face=&quot;Courier New&quot; style=&quot;font-size: 14px;&quot;&gt;I -&amp;gt; else { C }&lt;/font&gt;&lt;/div&gt;&lt;div&gt;&lt;font color=&quot;#0000ff&quot; face=&quot;Courier New&quot; style=&quot;font-size: 14px;&quot;&gt;I -&amp;gt; lambda&lt;/font&gt;&lt;/div&gt;&lt;div&gt;&lt;font color=&quot;#0000ff&quot; face=&quot;Courier New&quot; style=&quot;font-size: 14px;&quot;&gt;T -&amp;gt; int&lt;/font&gt;&lt;/div&gt;&lt;div&gt;&lt;font color=&quot;#0000ff&quot; face=&quot;Courier New&quot; style=&quot;font-size: 14px;&quot;&gt;T -&amp;gt; boolean&lt;/font&gt;&lt;/div&gt;&lt;div&gt;&lt;font color=&quot;#0000ff&quot; face=&quot;Courier New&quot; style=&quot;font-size: 14px;&quot;&gt;T -&amp;gt; string&lt;/font&gt;&lt;/div&gt;&lt;div&gt;&lt;font color=&quot;#0000ff&quot; face=&quot;Courier New&quot; style=&quot;font-size: 14px;&quot;&gt;S -&amp;gt; id = E ;&lt;/font&gt;&lt;/div&gt;&lt;div&gt;&lt;font color=&quot;#0000ff&quot; face=&quot;Courier New&quot; style=&quot;font-size: 14px;&quot;&gt;S -&amp;gt; id &amp;amp;= E ;&lt;/font&gt;&lt;/div&gt;&lt;div&gt;&lt;font color=&quot;#0000ff&quot; face=&quot;Courier New&quot; style=&quot;font-size: 14px;&quot;&gt;S -&amp;gt; id ( L ) ;&lt;/font&gt;&lt;/div&gt;&lt;div&gt;&lt;font color=&quot;#0000ff&quot; face=&quot;Courier New&quot; style=&quot;font-size: 14px;&quot;&gt;S -&amp;gt; output E ;&lt;/font&gt;&lt;/div&gt;&lt;div&gt;&lt;font color=&quot;#0000ff&quot; face=&quot;Courier New&quot; style=&quot;font-size: 14px;&quot;&gt;S -&amp;gt; input id ;&lt;/font&gt;&lt;/div&gt;&lt;div&gt;&lt;font color=&quot;#0000ff&quot; face=&quot;Courier New&quot; style=&quot;font-size: 14px;&quot;&gt;S -&amp;gt; return X ;&lt;/font&gt;&lt;/div&gt;&lt;div&gt;&lt;font color=&quot;#0000ff&quot; face=&quot;Courier New&quot; style=&quot;font-size: 14px;&quot;&gt;L -&amp;gt; E Q&lt;/font&gt;&lt;/div&gt;&lt;div&gt;&lt;font color=&quot;#0000ff&quot; face=&quot;Courier New&quot; style=&quot;font-size: 14px;&quot;&gt;L -&amp;gt; lambda&lt;/font&gt;&lt;/div&gt;&lt;div&gt;&lt;font color=&quot;#0000ff&quot; face=&quot;Courier New&quot; style=&quot;font-size: 14px;&quot;&gt;Q -&amp;gt; , E Q&lt;/font&gt;&lt;/div&gt;&lt;div&gt;&lt;font color=&quot;#0000ff&quot; face=&quot;Courier New&quot; style=&quot;font-size: 14px;&quot;&gt;Q -&amp;gt; lambda&lt;/font&gt;&lt;/div&gt;&lt;div&gt;&lt;font color=&quot;#0000ff&quot; face=&quot;Courier New&quot; style=&quot;font-size: 14px;&quot;&gt;X -&amp;gt; E&lt;/font&gt;&lt;/div&gt;&lt;div&gt;&lt;font color=&quot;#0000ff&quot; face=&quot;Courier New&quot; style=&quot;font-size: 14px;&quot;&gt;X -&amp;gt; lambda&lt;/font&gt;&lt;/div&gt;&lt;div&gt;&lt;font color=&quot;#0000ff&quot; face=&quot;Courier New&quot; style=&quot;font-size: 14px;&quot;&gt;E -&amp;gt; E &amp;amp;&amp;amp; R&lt;/font&gt;&lt;/div&gt;&lt;div&gt;&lt;font color=&quot;#0000ff&quot; face=&quot;Courier New&quot; style=&quot;font-size: 14px;&quot;&gt;E -&amp;gt; R&lt;/font&gt;&lt;/div&gt;&lt;div&gt;&lt;font color=&quot;#0000ff&quot; face=&quot;Courier New&quot; style=&quot;font-size: 14px;&quot;&gt;R -&amp;gt; R == U&amp;nbsp;&lt;/font&gt;&lt;/div&gt;&lt;div&gt;&lt;font color=&quot;#0000ff&quot; face=&quot;Courier New&quot; style=&quot;font-size: 14px;&quot;&gt;R -&amp;gt; U&lt;/font&gt;&lt;/div&gt;&lt;div&gt;&lt;font color=&quot;#0000ff&quot; face=&quot;Courier New&quot; style=&quot;font-size: 14px;&quot;&gt;U -&amp;gt; U + V&lt;/font&gt;&lt;/div&gt;&lt;div&gt;&lt;font color=&quot;#0000ff&quot; face=&quot;Courier New&quot; style=&quot;font-size: 14px;&quot;&gt;U -&amp;gt; V&lt;/font&gt;&lt;/div&gt;&lt;div&gt;&lt;font color=&quot;#0000ff&quot; face=&quot;Courier New&quot; style=&quot;font-size: 14px;&quot;&gt;V -&amp;gt; id&lt;/font&gt;&lt;/div&gt;&lt;div&gt;&lt;font color=&quot;#0000ff&quot; face=&quot;Courier New&quot; style=&quot;font-size: 14px;&quot;&gt;V -&amp;gt; ( E )&lt;/font&gt;&lt;/div&gt;&lt;div&gt;&lt;font color=&quot;#0000ff&quot; face=&quot;Courier New&quot; style=&quot;font-size: 14px;&quot;&gt;V -&amp;gt; ent&lt;/font&gt;&lt;/div&gt;&lt;div&gt;&lt;font color=&quot;#0000ff&quot; face=&quot;Courier New&quot; style=&quot;font-size: 14px;&quot;&gt;V -&amp;gt; id ( L )&lt;/font&gt;&lt;/div&gt;&lt;div&gt;&lt;font color=&quot;#0000ff&quot; face=&quot;Courier New&quot; style=&quot;font-size: 14px;&quot;&gt;V -&amp;gt; cad&lt;/font&gt;&lt;/div&gt;" style="text;html=1;align=center;verticalAlign=middle;resizable=0;points=[];autosize=1;strokeColor=none;fillColor=none;" parent="1" vertex="1">
          <mxGeometry x="270" y="50" width="270" height="800" as="geometry" />
        </mxCell>
        <mxCell id="9CIfiXQJs4M4mhII0K4a-2" value="&lt;div&gt;&lt;font style=&quot;font-size: 14px;&quot; color=&quot;#0000ff&quot; face=&quot;Courier New&quot;&gt;V -&amp;gt; id &lt;/font&gt;&lt;font color=&quot;#ff0080&quot; style=&quot;font-size: 14px;&quot; face=&quot;Courier New&quot;&gt;{V.tipo := if ((id.tipo := BuscaTipoTs(id.pos)) != null) {&lt;/font&gt;&lt;/div&gt;&lt;div&gt;&lt;font color=&quot;#ff0080&quot; style=&quot;font-size: 14px;&quot; face=&quot;Courier New&quot;&gt;then id.tipo&lt;/font&gt;&lt;/div&gt;&lt;div&gt;&lt;font color=&quot;#ff0080&quot; style=&quot;font-size: 14px;&quot; face=&quot;Courier New&quot;&gt;else {&lt;/font&gt;&lt;/div&gt;&lt;div&gt;&lt;font color=&quot;#ff0080&quot; style=&quot;font-size: 14px;&quot; face=&quot;Courier New&quot;&gt;TSA_copy := TSA&lt;/font&gt;&lt;/div&gt;&lt;div&gt;&lt;font color=&quot;#ff0080&quot; style=&quot;font-size: 14px;&quot; face=&quot;Courier New&quot;&gt;TSA := TSG&amp;nbsp;&lt;/font&gt;&lt;/div&gt;&lt;div&gt;&lt;font color=&quot;#ff0080&quot; style=&quot;font-size: 14px;&quot; face=&quot;Courier New&quot;&gt;insertaTipoTS(id.pos, ent)&lt;/font&gt;&lt;/div&gt;&lt;div&gt;&lt;font color=&quot;#ff0080&quot; style=&quot;font-size: 14px;&quot; face=&quot;Courier New&quot;&gt;TSA := TSA_copy&lt;/font&gt;&lt;/div&gt;&lt;div&gt;&lt;font color=&quot;#ff0080&quot; style=&quot;font-size: 14px;&quot; face=&quot;Courier New&quot;&gt;then ent&lt;/font&gt;&lt;/div&gt;&lt;div&gt;&lt;font color=&quot;#ff0080&quot; style=&quot;font-size: 14px;&quot; face=&quot;Courier New&quot;&gt;}&lt;/font&gt;&lt;/div&gt;&lt;div&gt;&lt;font style=&quot;font-size: 14px;&quot; color=&quot;#0000ff&quot; face=&quot;Courier New&quot;&gt;V -&amp;gt; ( E ) &lt;/font&gt;&lt;font color=&quot;#ff0080&quot; style=&quot;font-size: 14px;&quot; face=&quot;Courier New&quot;&gt;{V.tipo := E.tipo}&lt;/font&gt;&lt;/div&gt;&lt;div&gt;&lt;font color=&quot;#ff0080&quot; style=&quot;font-size: 14px;&quot; face=&quot;Courier New&quot;&gt;&lt;br&gt;&lt;/font&gt;&lt;/div&gt;&lt;div&gt;&lt;font style=&quot;font-size: 14px;&quot; color=&quot;#0000ff&quot; face=&quot;Courier New&quot;&gt;V -&amp;gt; ent &lt;/font&gt;&lt;font color=&quot;#ff0080&quot; style=&quot;font-size: 14px;&quot; face=&quot;Courier New&quot;&gt;{V.tipo := ent}&lt;/font&gt;&lt;/div&gt;&lt;div&gt;&lt;font color=&quot;#ff0080&quot; style=&quot;font-size: 14px;&quot; face=&quot;Courier New&quot;&gt;&lt;br&gt;&lt;/font&gt;&lt;/div&gt;&lt;div&gt;&lt;font style=&quot;font-size: 14px;&quot; color=&quot;#0000ff&quot; face=&quot;Courier New&quot;&gt;V -&amp;gt; id ( L )&amp;nbsp;&lt;/font&gt;&lt;/div&gt;&lt;div&gt;&lt;font style=&quot;font-size: 14px;&quot; color=&quot;#0000ff&quot; face=&quot;Courier New&quot;&gt;&lt;br&gt;&lt;/font&gt;&lt;/div&gt;&lt;div&gt;&lt;font style=&quot;font-size: 14px;&quot; color=&quot;#0000ff&quot; face=&quot;Courier New&quot;&gt;V -&amp;gt; cad&amp;nbsp;&lt;/font&gt;&lt;span style=&quot;color: rgb(255, 0, 128); font-family: &amp;quot;Courier New&amp;quot;; font-size: 14px; background-color: initial;&quot;&gt;{V.tipo := cad}&lt;/span&gt;&lt;/div&gt;" style="text;html=1;align=center;verticalAlign=middle;resizable=0;points=[];autosize=1;strokeColor=none;fillColor=none;" parent="1" vertex="1">
          <mxGeometry x="105" y="870" width="600" height="280" as="geometry" />
        </mxCell>
        <mxCell id="9CIfiXQJs4M4mhII0K4a-3" value="&lt;div&gt;&lt;div&gt;&lt;font style=&quot;font-size: 14px;&quot; color=&quot;#0000ff&quot; face=&quot;Courier New&quot;&gt;X -&amp;gt; E &lt;/font&gt;&lt;font color=&quot;#ff0080&quot; style=&quot;font-size: 14px;&quot; face=&quot;Courier New&quot;&gt;{X.tipoRet := E.tipo}&lt;/font&gt;&lt;/div&gt;&lt;div&gt;&lt;font color=&quot;#ff0080&quot; style=&quot;font-size: 14px;&quot; face=&quot;Courier New&quot;&gt;&lt;br&gt;&lt;/font&gt;&lt;/div&gt;&lt;div&gt;&lt;font style=&quot;font-size: 14px;&quot; color=&quot;#0000ff&quot; face=&quot;Courier New&quot;&gt;X -&amp;gt; lambda &lt;/font&gt;&lt;font color=&quot;#ff0080&quot; style=&quot;font-size: 14px;&quot; face=&quot;Courier New&quot;&gt;{X.tipoRet := vacio}&lt;/font&gt;&lt;/div&gt;&lt;/div&gt;&lt;div&gt;&lt;font color=&quot;#ff0080&quot; style=&quot;font-size: 14px;&quot; face=&quot;Courier New&quot;&gt;&lt;br&gt;&lt;/font&gt;&lt;/div&gt;&lt;div&gt;&lt;font style=&quot;font-size: 14px;&quot; color=&quot;#0000ff&quot; face=&quot;Courier New&quot;&gt;E -&amp;gt; E&lt;sub&gt;1&lt;/sub&gt; &amp;amp;&amp;amp; R &lt;/font&gt;&lt;font color=&quot;#ff0080&quot; style=&quot;font-size: 14px;&quot; face=&quot;Courier New&quot;&gt;{E.tipo := if (E&lt;sub&gt;1&lt;/sub&gt;.tipo = R.tipo) {&lt;/font&gt;&lt;/div&gt;&lt;div&gt;&lt;font color=&quot;#ff0080&quot; style=&quot;font-size: 14px;&quot; face=&quot;Courier New&quot;&gt;if (R.tipo = log)&amp;nbsp;&lt;/font&gt;&lt;/div&gt;&lt;div&gt;&lt;font color=&quot;#ff0080&quot; style=&quot;font-size: 14px;&quot; face=&quot;Courier New&quot;&gt;then log&lt;/font&gt;&lt;/div&gt;&lt;div&gt;&lt;font color=&quot;#ff0080&quot; style=&quot;font-size: 14px;&quot; face=&quot;Courier New&quot;&gt;else {&lt;/font&gt;&lt;/div&gt;&lt;div&gt;&lt;font color=&quot;#ff0080&quot; style=&quot;font-size: 14px;&quot; face=&quot;Courier New&quot;&gt;Error(&#39;Deben ser de tipo logico&#39;)&lt;/font&gt;&lt;/div&gt;&lt;div&gt;&lt;font color=&quot;#ff0080&quot; style=&quot;font-size: 14px;&quot; face=&quot;Courier New&quot;&gt;tipo_err&lt;/font&gt;&lt;/div&gt;&lt;div&gt;&lt;font color=&quot;#ff0080&quot; style=&quot;font-size: 14px;&quot; face=&quot;Courier New&quot;&gt;}&lt;/font&gt;&lt;/div&gt;&lt;div&gt;&lt;font color=&quot;#ff0080&quot; style=&quot;font-size: 14px;&quot; face=&quot;Courier New&quot;&gt;&amp;nbsp;} else {&lt;/font&gt;&lt;/div&gt;&lt;div&gt;&lt;font color=&quot;#ff0080&quot; style=&quot;font-size: 14px;&quot; face=&quot;Courier New&quot;&gt;Error(&#39;Deben ser mismo tipo&#39;)&lt;/font&gt;&lt;/div&gt;&lt;div&gt;&lt;font color=&quot;#ff0080&quot; style=&quot;font-size: 14px;&quot; face=&quot;Courier New&quot;&gt;tipo_err&lt;/font&gt;&lt;span style=&quot;font-size: 14px; color: rgb(255, 0, 128); font-family: &amp;quot;Courier New&amp;quot;; background-color: initial;&quot;&gt;}}&lt;/span&gt;&lt;/div&gt;&lt;div&gt;&lt;span style=&quot;font-size: 14px; color: rgb(255, 0, 128); font-family: &amp;quot;Courier New&amp;quot;; background-color: initial;&quot;&gt;&lt;br&gt;&lt;/span&gt;&lt;/div&gt;&lt;div&gt;&lt;font style=&quot;font-size: 14px;&quot; color=&quot;#0000ff&quot; face=&quot;Courier New&quot;&gt;E -&amp;gt; R &lt;/font&gt;&lt;font color=&quot;#ff0080&quot; style=&quot;font-size: 14px;&quot; face=&quot;Courier New&quot;&gt;{E.tipo := R.tipo}&lt;/font&gt;&lt;/div&gt;&lt;div&gt;&lt;font color=&quot;#ff0080&quot; style=&quot;font-size: 14px;&quot; face=&quot;Courier New&quot;&gt;&lt;br&gt;&lt;/font&gt;&lt;/div&gt;&lt;div&gt;&lt;font style=&quot;font-size: 14px;&quot; color=&quot;#0000ff&quot; face=&quot;Courier New&quot;&gt;R -&amp;gt; R&lt;sub&gt;1&lt;/sub&gt; == U &lt;/font&gt;&lt;font color=&quot;#ff0080&quot; style=&quot;font-size: 14px;&quot; face=&quot;Courier New&quot;&gt;{R.tipo := if (R&lt;sub&gt;1&lt;/sub&gt;.tipo = U.tipo) {&lt;/font&gt;&lt;/div&gt;&lt;div&gt;&lt;div&gt;&lt;font style=&quot;font-size: 14px;&quot; color=&quot;#ff0080&quot; face=&quot;Courier New&quot;&gt;if (U.tipo = ent)&amp;nbsp;&lt;/font&gt;&lt;/div&gt;&lt;div&gt;&lt;font style=&quot;font-size: 14px;&quot; color=&quot;#ff0080&quot; face=&quot;Courier New&quot;&gt;then log&lt;/font&gt;&lt;/div&gt;&lt;div&gt;&lt;font style=&quot;font-size: 14px;&quot; color=&quot;#ff0080&quot; face=&quot;Courier New&quot;&gt;else {&lt;/font&gt;&lt;/div&gt;&lt;div&gt;&lt;font style=&quot;font-size: 14px;&quot; color=&quot;#ff0080&quot; face=&quot;Courier New&quot;&gt;Error(&#39;Deben ser de tipo entero&#39;)&lt;/font&gt;&lt;/div&gt;&lt;div&gt;&lt;font style=&quot;font-size: 14px;&quot; color=&quot;#ff0080&quot; face=&quot;Courier New&quot;&gt;tipo_err&lt;/font&gt;&lt;/div&gt;&lt;div&gt;&lt;font style=&quot;font-size: 14px;&quot; color=&quot;#ff0080&quot; face=&quot;Courier New&quot;&gt;}&lt;/font&gt;&lt;/div&gt;&lt;div&gt;&lt;font style=&quot;font-size: 14px;&quot; color=&quot;#ff0080&quot; face=&quot;Courier New&quot;&gt;&amp;nbsp;} else {&lt;/font&gt;&lt;/div&gt;&lt;div&gt;&lt;font style=&quot;font-size: 14px;&quot; color=&quot;#ff0080&quot; face=&quot;Courier New&quot;&gt;Error(&#39;Deben ser mismo tipo&#39;)&lt;/font&gt;&lt;/div&gt;&lt;div&gt;&lt;font style=&quot;font-size: 14px;&quot; color=&quot;#ff0080&quot; face=&quot;Courier New&quot;&gt;tipo_err&lt;/font&gt;&lt;span style=&quot;font-size: 14px; color: rgb(255, 0, 128); font-family: &amp;quot;Courier New&amp;quot;; background-color: initial;&quot;&gt;}}&lt;/span&gt;&lt;/div&gt;&lt;/div&gt;&lt;div&gt;&lt;span style=&quot;font-size: 14px; color: rgb(255, 0, 128); font-family: &amp;quot;Courier New&amp;quot;; background-color: initial;&quot;&gt;&lt;br&gt;&lt;/span&gt;&lt;/div&gt;&lt;div&gt;&lt;font style=&quot;font-size: 14px;&quot; color=&quot;#0000ff&quot; face=&quot;Courier New&quot;&gt;R -&amp;gt; U &lt;/font&gt;&lt;font color=&quot;#ff0080&quot; style=&quot;font-size: 14px;&quot; face=&quot;Courier New&quot;&gt;{R.tipo := U.tipo}&lt;/font&gt;&lt;/div&gt;&lt;div&gt;&lt;font color=&quot;#ff0080&quot; style=&quot;font-size: 14px;&quot; face=&quot;Courier New&quot;&gt;&lt;br&gt;&lt;/font&gt;&lt;/div&gt;&lt;div&gt;&lt;font style=&quot;font-size: 14px;&quot; color=&quot;#0000ff&quot; face=&quot;Courier New&quot;&gt;U -&amp;gt; U&lt;sub&gt;1&lt;/sub&gt; + V &lt;/font&gt;&lt;font color=&quot;#ff0080&quot; style=&quot;font-size: 14px;&quot; face=&quot;Courier New&quot;&gt;{U.tipo :=&amp;nbsp;&lt;/font&gt;&lt;span style=&quot;font-size: 14px; color: rgb(255, 0, 128); font-family: &amp;quot;Courier New&amp;quot;; background-color: initial;&quot;&gt;if (U&lt;/span&gt;&lt;sub style=&quot;color: rgb(255, 0, 128); font-family: &amp;quot;Courier New&amp;quot;; background-color: initial;&quot;&gt;1&lt;/sub&gt;&lt;span style=&quot;font-size: 14px; color: rgb(255, 0, 128); font-family: &amp;quot;Courier New&amp;quot;; background-color: initial;&quot;&gt;.tipo = V.tipo) {&lt;/span&gt;&lt;/div&gt;&lt;div&gt;&lt;font style=&quot;font-size: 14px;&quot; color=&quot;#ff0080&quot; face=&quot;Courier New&quot;&gt;if (R.tipo = ent)&amp;nbsp;&lt;/font&gt;&lt;/div&gt;&lt;div&gt;&lt;font style=&quot;font-size: 14px;&quot; color=&quot;#ff0080&quot; face=&quot;Courier New&quot;&gt;then ent&lt;/font&gt;&lt;/div&gt;&lt;div&gt;&lt;font style=&quot;font-size: 14px;&quot; color=&quot;#ff0080&quot; face=&quot;Courier New&quot;&gt;else {&lt;/font&gt;&lt;/div&gt;&lt;div&gt;&lt;font style=&quot;font-size: 14px;&quot; color=&quot;#ff0080&quot; face=&quot;Courier New&quot;&gt;Error(&#39;Deben ser de tipo entero&#39;)&lt;/font&gt;&lt;/div&gt;&lt;div&gt;&lt;font style=&quot;font-size: 14px;&quot; color=&quot;#ff0080&quot; face=&quot;Courier New&quot;&gt;tipo_err&lt;/font&gt;&lt;/div&gt;&lt;div&gt;&lt;font style=&quot;font-size: 14px;&quot; color=&quot;#ff0080&quot; face=&quot;Courier New&quot;&gt;}&lt;/font&gt;&lt;/div&gt;&lt;div&gt;&lt;font style=&quot;font-size: 14px;&quot; color=&quot;#ff0080&quot; face=&quot;Courier New&quot;&gt;&amp;nbsp;} else {&lt;/font&gt;&lt;/div&gt;&lt;div&gt;&lt;font style=&quot;font-size: 14px;&quot; color=&quot;#ff0080&quot; face=&quot;Courier New&quot;&gt;Error(&#39;Deben ser mismo tipo&#39;)&lt;/font&gt;&lt;/div&gt;&lt;div&gt;&lt;font style=&quot;font-size: 14px;&quot; color=&quot;#ff0080&quot; face=&quot;Courier New&quot;&gt;tipo_err&lt;/font&gt;&lt;span style=&quot;font-size: 14px; color: rgb(255, 0, 128); font-family: &amp;quot;Courier New&amp;quot;; background-color: initial;&quot;&gt;}}&lt;/span&gt;&lt;/div&gt;&lt;div&gt;&lt;span style=&quot;font-size: 14px; color: rgb(255, 0, 128); font-family: &amp;quot;Courier New&amp;quot;; background-color: initial;&quot;&gt;&lt;br&gt;&lt;/span&gt;&lt;/div&gt;&lt;div&gt;&lt;font style=&quot;font-size: 14px;&quot; color=&quot;#0000ff&quot; face=&quot;Courier New&quot;&gt;U -&amp;gt; V &lt;/font&gt;&lt;font color=&quot;#ff0080&quot; style=&quot;font-size: 14px;&quot; face=&quot;Courier New&quot;&gt;{U.tipo := V.tipo}&lt;/font&gt;&lt;/div&gt;" style="text;html=1;align=center;verticalAlign=middle;resizable=0;points=[];autosize=1;strokeColor=none;fillColor=none;" parent="1" vertex="1">
          <mxGeometry x="75" y="1225" width="430" height="730" as="geometry" />
        </mxCell>
        <mxCell id="9CIfiXQJs4M4mhII0K4a-4" value="&lt;div&gt;&lt;font style=&quot;font-size: 14px;&quot; color=&quot;#0000ff&quot; face=&quot;Courier New&quot;&gt;S -&amp;gt; id = E ; &lt;/font&gt;&lt;font color=&quot;#ff0080&quot; style=&quot;font-size: 14px;&quot; face=&quot;Courier New&quot;&gt;{id.tipo :=&amp;nbsp;&lt;/font&gt;&lt;span style=&quot;color: rgb(255, 0, 128); font-family: &amp;quot;Courier New&amp;quot;; font-size: 14px; background-color: initial;&quot;&gt;buscaTipoTS(id.pos),&amp;nbsp;&lt;/span&gt;&lt;span style=&quot;font-size: 14px; color: rgb(255, 0, 128); font-family: &amp;quot;Courier New&amp;quot;; background-color: initial;&quot;&gt;S.tipo := if (id.tipo = E.tipo) {&lt;/span&gt;&lt;/div&gt;&lt;div&gt;&lt;font face=&quot;Courier New&quot; color=&quot;#ff0080&quot;&gt;&lt;span style=&quot;font-size: 14px;&quot;&gt;then tipo_ok&lt;/span&gt;&lt;/font&gt;&lt;/div&gt;&lt;div&gt;&lt;font color=&quot;#ff0080&quot; style=&quot;font-size: 14px;&quot; face=&quot;Courier New&quot;&gt;else {&lt;/font&gt;&lt;/div&gt;&lt;div&gt;&lt;font color=&quot;#ff0080&quot; style=&quot;font-size: 14px;&quot; face=&quot;Courier New&quot;&gt;Error (&#39;No se pueden asignar valores E.tipo&amp;nbsp;&lt;/font&gt;&lt;/div&gt;&lt;div&gt;&lt;font color=&quot;#ff0080&quot; style=&quot;font-size: 14px;&quot; face=&quot;Courier New&quot;&gt;a la variable id que es un id.tipo&#39;)&lt;/font&gt;&lt;/div&gt;&lt;div&gt;&lt;font color=&quot;#ff0080&quot; style=&quot;font-size: 14px;&quot; face=&quot;Courier New&quot;&gt;tipo_err&lt;/font&gt;&lt;/div&gt;&lt;div&gt;&lt;font color=&quot;#ff0080&quot; style=&quot;font-size: 14px;&quot; face=&quot;Courier New&quot;&gt;}&lt;/font&gt;&lt;/div&gt;&lt;div&gt;&lt;font color=&quot;#ff0080&quot; style=&quot;font-size: 14px;&quot; face=&quot;Courier New&quot;&gt;&lt;br&gt;&lt;/font&gt;&lt;/div&gt;&lt;div&gt;&lt;font style=&quot;font-size: 14px;&quot; color=&quot;#0000ff&quot; face=&quot;Courier New&quot;&gt;S -&amp;gt; id &amp;amp;= E ;&amp;nbsp;&lt;/font&gt;&lt;font style=&quot;background-color: initial; font-size: 14px;&quot; color=&quot;#ff0080&quot; face=&quot;Courier New&quot;&gt;{id.tipo :=&amp;nbsp;&lt;/font&gt;&lt;span style=&quot;background-color: initial; color: rgb(255, 0, 128); font-family: &amp;quot;Courier New&amp;quot;; font-size: 14px;&quot;&gt;buscaTipoTS(id.pos),&amp;nbsp;&lt;/span&gt;&lt;span style=&quot;background-color: initial; font-size: 14px; color: rgb(255, 0, 128); font-family: &amp;quot;Courier New&amp;quot;;&quot;&gt;S.tipo := if (id.tipo = E.tipo) {&lt;/span&gt;&lt;/div&gt;&lt;div&gt;&lt;font face=&quot;Courier New&quot; color=&quot;#ff0080&quot;&gt;&lt;span style=&quot;font-size: 14px;&quot;&gt;then tipo_ok&lt;/span&gt;&lt;/font&gt;&lt;/div&gt;&lt;div&gt;&lt;font style=&quot;font-size: 14px;&quot; color=&quot;#ff0080&quot; face=&quot;Courier New&quot;&gt;else {&lt;/font&gt;&lt;/div&gt;&lt;div&gt;&lt;font style=&quot;font-size: 14px;&quot; color=&quot;#ff0080&quot; face=&quot;Courier New&quot;&gt;Error (&#39;No se pueden asignar valores E.tipo&amp;nbsp;&lt;/font&gt;&lt;/div&gt;&lt;div&gt;&lt;font style=&quot;font-size: 14px;&quot; color=&quot;#ff0080&quot; face=&quot;Courier New&quot;&gt;a la variable id que es un id.tipo&#39;)&lt;/font&gt;&lt;/div&gt;&lt;div&gt;&lt;font style=&quot;font-size: 14px;&quot; color=&quot;#ff0080&quot; face=&quot;Courier New&quot;&gt;tipo_err&lt;/font&gt;&lt;/div&gt;&lt;div&gt;&lt;font style=&quot;font-size: 14px;&quot; color=&quot;#ff0080&quot; face=&quot;Courier New&quot;&gt;}&lt;/font&gt;&lt;/div&gt;&lt;div&gt;&lt;font style=&quot;font-size: 14px;&quot; color=&quot;#ff0080&quot; face=&quot;Courier New&quot;&gt;&lt;br&gt;&lt;/font&gt;&lt;/div&gt;&lt;div&gt;&lt;font style=&quot;font-size: 14px;&quot; color=&quot;#0000ff&quot; face=&quot;Courier New&quot;&gt;S -&amp;gt; id&amp;nbsp;&lt;/font&gt;&lt;font style=&quot;background-color: initial; font-size: 14px;&quot; color=&quot;#ff0080&quot; face=&quot;Courier New&quot;&gt;{S.tipoRet :=&amp;nbsp; buscaTipoRet(id.pos)&lt;/font&gt;&lt;span style=&quot;background-color: initial; font-size: 14px; color: rgb(255, 0, 128); font-family: &amp;quot;Courier New&amp;quot;;&quot;&gt;}&lt;/span&gt;&lt;/div&gt;&lt;div&gt;&lt;span style=&quot;font-size: 14px; color: rgb(0, 0, 255); font-family: &amp;quot;Courier New&amp;quot;; background-color: initial;&quot;&gt;( L ) ; &lt;/span&gt;&lt;span style=&quot;font-size: 14px; font-family: &amp;quot;Courier New&amp;quot;; background-color: initial;&quot;&gt;&lt;font color=&quot;#ff0080&quot;&gt;{S.tipo := if (buscaTipoParams(id.pos) != L.tipoParams)&lt;/font&gt;&lt;/span&gt;&lt;/div&gt;&lt;div&gt;&lt;span style=&quot;font-size: 14px; font-family: &amp;quot;Courier New&amp;quot;; background-color: initial;&quot;&gt;&lt;font color=&quot;#ff0080&quot;&gt;then tipo_err&lt;/font&gt;&lt;/span&gt;&lt;/div&gt;&lt;div&gt;&lt;span style=&quot;font-size: 14px; font-family: &amp;quot;Courier New&amp;quot;; background-color: initial;&quot;&gt;&lt;font color=&quot;#ff0080&quot;&gt;else tipo_ok}&lt;/font&gt;&lt;/span&gt;&lt;span style=&quot;font-size: 14px; color: rgb(0, 0, 255); font-family: &amp;quot;Courier New&amp;quot;; background-color: initial;&quot;&gt;&amp;nbsp;&lt;/span&gt;&lt;/div&gt;&lt;div&gt;&lt;font style=&quot;font-size: 14px;&quot; color=&quot;#0000ff&quot; face=&quot;Courier New&quot;&gt;&lt;br&gt;&lt;/font&gt;&lt;/div&gt;&lt;div&gt;&lt;font style=&quot;font-size: 14px;&quot; color=&quot;#0000ff&quot; face=&quot;Courier New&quot;&gt;S -&amp;gt; output E ; &lt;/font&gt;&lt;font color=&quot;#ff0080&quot; style=&quot;font-size: 14px;&quot; face=&quot;Courier New&quot;&gt;{S.tipo := if (E.tipo&amp;nbsp;&lt;/font&gt;&lt;span style=&quot;background-color: rgb(255, 255, 255); color: rgb(255, 0, 128); font-family: &amp;quot;Courier New&amp;quot;; font-size: 14px; text-wrap-mode: wrap;&quot;&gt;â {ent, cad}) {&lt;/span&gt;&lt;/div&gt;&lt;div&gt;&lt;span style=&quot;font-size: 14px; color: rgb(255, 0, 128); font-family: &amp;quot;Courier New&amp;quot;; background-color: initial;&quot;&gt;then tipo_ok&lt;/span&gt;&lt;/div&gt;&lt;div&gt;&lt;span style=&quot;font-size: 14px; color: rgb(255, 0, 128); font-family: &amp;quot;Courier New&amp;quot;; background-color: initial;&quot;&gt;else {&lt;/span&gt;&lt;/div&gt;&lt;div&gt;&lt;span style=&quot;font-size: 14px; color: rgb(255, 0, 128); font-family: &amp;quot;Courier New&amp;quot;; background-color: initial;&quot;&gt;Error(&#39;&lt;/span&gt;&lt;span style=&quot;font-size: 14px; color: rgb(255, 0, 128); font-family: &amp;quot;Courier New&amp;quot;; background-color: rgb(255, 255, 255); text-wrap-mode: wrap;&quot;&gt;Las operaciones de salida solo admiten enteros&lt;/span&gt;&lt;/div&gt;&lt;div&gt;&lt;span style=&quot;background-color: rgb(255, 255, 255); text-wrap-mode: wrap;&quot;&gt;&lt;font style=&quot;font-size: 14px;&quot; color=&quot;#ff0080&quot; face=&quot;Courier New&quot;&gt;o cadenas, no se permite E.tipo&#39;)&lt;/font&gt;&lt;/span&gt;&lt;/div&gt;&lt;div&gt;&lt;span style=&quot;background-color: rgb(255, 255, 255); text-wrap-mode: wrap;&quot;&gt;&lt;font style=&quot;font-size: 14px;&quot; color=&quot;#ff0080&quot; face=&quot;Courier New&quot;&gt;tipo_err&lt;/font&gt;&lt;/span&gt;&lt;/div&gt;&lt;div&gt;&lt;span style=&quot;font-size: 14px; color: rgb(255, 0, 128); font-family: &amp;quot;Courier New&amp;quot;; background-color: initial;&quot;&gt;}&lt;/span&gt;&lt;/div&gt;&lt;div&gt;&lt;span style=&quot;font-size: 14px; color: rgb(255, 0, 128); font-family: &amp;quot;Courier New&amp;quot;; background-color: initial;&quot;&gt;&lt;br&gt;&lt;/span&gt;&lt;/div&gt;&lt;div&gt;&lt;font style=&quot;font-size: 14px;&quot; color=&quot;#0000ff&quot; face=&quot;Courier New&quot;&gt;S -&amp;gt; input id ; &lt;/font&gt;&lt;font color=&quot;#ff0080&quot; style=&quot;font-size: 14px;&quot; face=&quot;Courier New&quot;&gt;{id.tipo := buscaTipoTS(id.pos), S.tipo := if (id.tipo&amp;nbsp;&lt;/font&gt;&lt;span style=&quot;background-color: rgb(255, 255, 255); text-wrap-mode: wrap;&quot;&gt;&lt;font color=&quot;#ff0080&quot; style=&quot;font-size: 14px;&quot; face=&quot;Courier New&quot;&gt;â {ent, cad} {&lt;/font&gt;&lt;/span&gt;&lt;/div&gt;&lt;div&gt;&lt;span style=&quot;background-color: rgb(255, 255, 255); text-wrap-mode: wrap;&quot;&gt;&lt;font color=&quot;#ff0080&quot; style=&quot;font-size: 14px;&quot; face=&quot;Courier New&quot;&gt;then tipo_ok&lt;/font&gt;&lt;/span&gt;&lt;/div&gt;&lt;div&gt;&lt;span style=&quot;background-color: rgb(255, 255, 255); text-wrap-mode: wrap;&quot;&gt;&lt;font color=&quot;#ff0080&quot; style=&quot;font-size: 14px;&quot; face=&quot;Courier New&quot;&gt;else {&lt;/font&gt;&lt;/span&gt;&lt;/div&gt;&lt;div&gt;&lt;span style=&quot;background-color: rgb(255, 255, 255); text-wrap-mode: wrap;&quot;&gt;&lt;font color=&quot;#ff0080&quot; style=&quot;font-size: 14px;&quot; face=&quot;Courier New&quot;&gt;Error(&#39;Las operaciones de entrada solo admiten enteros&lt;/font&gt;&lt;/span&gt;&lt;/div&gt;&lt;div&gt;&lt;span style=&quot;background-color: rgb(255, 255, 255); text-wrap-mode: wrap;&quot;&gt;&lt;font color=&quot;#ff0080&quot; style=&quot;font-size: 14px;&quot; face=&quot;Courier New&quot;&gt;o cadenas, no se permite id.tipo&#39;)&lt;/font&gt;&lt;/span&gt;&lt;/div&gt;&lt;div&gt;&lt;span style=&quot;background-color: rgb(255, 255, 255); text-wrap-mode: wrap;&quot;&gt;&lt;font color=&quot;#ff0080&quot; style=&quot;font-size: 14px;&quot; face=&quot;Courier New&quot;&gt;tipo_err&lt;/font&gt;&lt;/span&gt;&lt;/div&gt;&lt;div&gt;&lt;span style=&quot;font-size: 14px; color: rgb(255, 0, 128); font-family: &amp;quot;Courier New&amp;quot;; background-color: initial;&quot;&gt;}}&lt;/span&gt;&lt;/div&gt;&lt;div&gt;&lt;span style=&quot;font-size: 14px; color: rgb(255, 0, 128); font-family: &amp;quot;Courier New&amp;quot;; background-color: initial;&quot;&gt;&lt;br&gt;&lt;/span&gt;&lt;/div&gt;&lt;div&gt;&lt;font style=&quot;font-size: 14px;&quot; color=&quot;#0000ff&quot; face=&quot;Courier New&quot;&gt;S -&amp;gt; return X ; &lt;/font&gt;&lt;font color=&quot;#ff0080&quot; style=&quot;font-size: 14px;&quot; face=&quot;Courier New&quot;&gt;{&lt;/font&gt;&lt;span style=&quot;font-size: 14px; color: rgb(255, 0, 128); font-family: &amp;quot;Courier New&amp;quot;; background-color: initial;&quot;&gt;S.tipo := if (X.tipo = tipo_err)&lt;/span&gt;&lt;/div&gt;&lt;div&gt;&lt;font color=&quot;#ff0080&quot; style=&quot;font-size: 14px;&quot; face=&quot;Courier New&quot;&gt;then tipo_err&lt;/font&gt;&lt;/div&gt;&lt;div&gt;&lt;font color=&quot;#ff0080&quot; style=&quot;font-size: 14px;&quot; face=&quot;Courier New&quot;&gt;else tipo_ok&lt;/font&gt;&lt;/div&gt;&lt;div&gt;&lt;span style=&quot;color: rgb(255, 0, 128); font-family: &amp;quot;Courier New&amp;quot;; font-size: 14px; background-color: initial;&quot;&gt;S.tipoRet := X.tipo&lt;/span&gt;&lt;font color=&quot;#ff0080&quot; style=&quot;font-size: 14px;&quot; face=&quot;Courier New&quot;&gt;}&lt;/font&gt;&lt;/div&gt;" style="text;html=1;align=center;verticalAlign=middle;resizable=0;points=[];autosize=1;strokeColor=none;fillColor=none;" parent="1" vertex="1">
          <mxGeometry x="20" y="1955" width="770" height="700" as="geometry" />
        </mxCell>
        <mxCell id="9CIfiXQJs4M4mhII0K4a-5" value="&lt;div&gt;&lt;font style=&quot;font-size: 14px;&quot; color=&quot;#0000ff&quot; face=&quot;Courier New&quot;&gt;T -&amp;gt; int &lt;/font&gt;&lt;font color=&quot;#ff0080&quot; style=&quot;font-size: 14px;&quot; face=&quot;Courier New&quot;&gt;{T.tipo := entero, T.ancho := 2}&lt;/font&gt;&lt;/div&gt;&lt;div&gt;&lt;font color=&quot;#ff0080&quot; style=&quot;font-size: 14px;&quot; face=&quot;Courier New&quot;&gt;&lt;br&gt;&lt;/font&gt;&lt;/div&gt;&lt;div&gt;&lt;font style=&quot;font-size: 14px;&quot; color=&quot;#0000ff&quot; face=&quot;Courier New&quot;&gt;T -&amp;gt; boolean &lt;/font&gt;&lt;font color=&quot;#ff0080&quot; style=&quot;font-size: 14px;&quot; face=&quot;Courier New&quot;&gt;{T.tipo := log, T.ancho := 2}&lt;/font&gt;&lt;/div&gt;&lt;div&gt;&lt;font color=&quot;#ff0080&quot; style=&quot;font-size: 14px;&quot; face=&quot;Courier New&quot;&gt;&lt;br&gt;&lt;/font&gt;&lt;/div&gt;&lt;div&gt;&lt;font style=&quot;font-size: 14px;&quot; color=&quot;#0000ff&quot; face=&quot;Courier New&quot;&gt;T -&amp;gt; string &lt;/font&gt;&lt;font color=&quot;#ff0080&quot; style=&quot;font-size: 14px;&quot; face=&quot;Courier New&quot;&gt;{T.tipo := cad, T.ancho := 128}&lt;/font&gt;&lt;/div&gt;" style="text;html=1;align=center;verticalAlign=middle;resizable=0;points=[];autosize=1;strokeColor=none;fillColor=none;" parent="1" vertex="1">
          <mxGeometry x="40" y="2690" width="400" height="100" as="geometry" />
        </mxCell>
        <mxCell id="9CIfiXQJs4M4mhII0K4a-6" value="&lt;div&gt;&lt;font style=&quot;font-size: 14px;&quot; color=&quot;#0000ff&quot; face=&quot;Courier New&quot;&gt;B -&amp;gt; var T id ; &lt;/font&gt;&lt;font color=&quot;#ff0080&quot; style=&quot;font-size: 14px;&quot; face=&quot;Courier New&quot;&gt;{insertaTipoTS(id.pos, T.tipo)&lt;/font&gt;&lt;/div&gt;&lt;div&gt;&lt;font color=&quot;#ff0080&quot; style=&quot;font-size: 14px;&quot; face=&quot;Courier New&quot;&gt;if (TSActual = TSG) {&lt;/font&gt;&lt;/div&gt;&lt;div&gt;&lt;font color=&quot;#ff0080&quot; style=&quot;font-size: 14px;&quot; face=&quot;Courier New&quot;&gt;insertaDesplTS(id.pos, desplG)&lt;/font&gt;&lt;/div&gt;&lt;div&gt;&lt;font color=&quot;#ff0080&quot; style=&quot;font-size: 14px;&quot; face=&quot;Courier New&quot;&gt;desplG += T.ancho&lt;/font&gt;&lt;/div&gt;&lt;div&gt;&lt;span style=&quot;font-size: 14px; color: rgb(255, 0, 128); font-family: &amp;quot;Courier New&amp;quot;; background-color: initial;&quot;&gt;} else {&lt;/span&gt;&lt;/div&gt;&lt;div&gt;&lt;span style=&quot;font-size: 14px; color: rgb(255, 0, 128); font-family: &amp;quot;Courier New&amp;quot;; background-color: initial;&quot;&gt;insertaDesplTS(id.pos, desplL)&lt;/span&gt;&lt;/div&gt;&lt;div&gt;&lt;span style=&quot;font-size: 14px; color: rgb(255, 0, 128); font-family: &amp;quot;Courier New&amp;quot;; background-color: initial;&quot;&gt;desplL += T.ancho&lt;/span&gt;&lt;/div&gt;&lt;div&gt;&lt;font color=&quot;#ff0080&quot; style=&quot;font-size: 14px;&quot; face=&quot;Courier New&quot;&gt;}}&lt;/font&gt;&lt;/div&gt;&lt;div&gt;&lt;font color=&quot;#ff0080&quot; style=&quot;font-size: 14px;&quot; face=&quot;Courier New&quot;&gt;&lt;br&gt;&lt;/font&gt;&lt;/div&gt;&lt;div&gt;&lt;font style=&quot;font-size: 14px;&quot; color=&quot;#0000ff&quot; face=&quot;Courier New&quot;&gt;B -&amp;gt; if ( E ) { C } I&amp;nbsp;&lt;/font&gt;&lt;span style=&quot;font-size: 14px; color: rgb(255, 0, 128); font-family: &amp;quot;Courier New&amp;quot;; background-color: initial;&quot;&gt;{B.tipo := if (E.tipo = log) {&lt;/span&gt;&lt;/div&gt;&lt;div&gt;&lt;font style=&quot;font-size: 14px;&quot; color=&quot;#ff0080&quot; face=&quot;Courier New&quot;&gt;if (C.tipo = tipo_err) {&lt;/font&gt;&lt;/div&gt;&lt;div&gt;&lt;font style=&quot;font-size: 14px;&quot; color=&quot;#ff0080&quot; face=&quot;Courier New&quot;&gt;then tipo_err&lt;/font&gt;&lt;/div&gt;&lt;div&gt;&lt;span style=&quot;font-size: 14px; color: rgb(255, 0, 128); font-family: &amp;quot;Courier New&amp;quot;; background-color: initial;&quot;&gt;} else if (I.tipo = tipo_err) {&lt;/span&gt;&lt;/div&gt;&lt;div&gt;&lt;span style=&quot;font-size: 14px; color: rgb(255, 0, 128); font-family: &amp;quot;Courier New&amp;quot;; background-color: initial;&quot;&gt;then tipo_err&lt;/span&gt;&lt;/div&gt;&lt;div&gt;&lt;span style=&quot;font-size: 14px; color: rgb(255, 0, 128); font-family: &amp;quot;Courier New&amp;quot;; background-color: initial;&quot;&gt;} else {&lt;/span&gt;&lt;/div&gt;&lt;div&gt;&lt;span style=&quot;font-size: 14px; color: rgb(255, 0, 128); font-family: &amp;quot;Courier New&amp;quot;; background-color: initial;&quot;&gt;tipo_ok&amp;nbsp;&lt;/span&gt;&lt;/div&gt;&lt;div&gt;&lt;span style=&quot;font-size: 14px; color: rgb(255, 0, 128); font-family: &amp;quot;Courier New&amp;quot;; background-color: initial;&quot;&gt;} else {&lt;/span&gt;&lt;/div&gt;&lt;div&gt;&lt;span style=&quot;font-size: 14px; color: rgb(255, 0, 128); font-family: &amp;quot;Courier New&amp;quot;; background-color: initial;&quot;&gt;Error(&#39;En las sentencias condicionales, se necesita&lt;/span&gt;&lt;/div&gt;&lt;div&gt;&lt;span style=&quot;font-size: 14px; color: rgb(255, 0, 128); font-family: &amp;quot;Courier New&amp;quot;; background-color: initial;&quot;&gt;una condicion logica, en vez de E.tipo&#39;)&lt;/span&gt;&lt;/div&gt;&lt;div&gt;&lt;span style=&quot;font-size: 14px; color: rgb(255, 0, 128); font-family: &amp;quot;Courier New&amp;quot;; background-color: initial;&quot;&gt;tipo_err&lt;/span&gt;&lt;/div&gt;&lt;div&gt;&lt;span style=&quot;font-size: 14px; color: rgb(255, 0, 128); font-family: &amp;quot;Courier New&amp;quot;; background-color: initial;&quot;&gt;}}&lt;/span&gt;&lt;/div&gt;&lt;div&gt;&lt;font style=&quot;font-size: 14px;&quot; color=&quot;#0000ff&quot; face=&quot;Courier New&quot;&gt;&lt;br&gt;&lt;/font&gt;&lt;/div&gt;&lt;div&gt;&lt;font style=&quot;font-size: 14px;&quot; color=&quot;#0000ff&quot; face=&quot;Courier New&quot;&gt;B -&amp;gt; if ( E ) S&amp;nbsp;&lt;/font&gt;&lt;font color=&quot;#ff0080&quot; style=&quot;font-size: 14px;&quot; face=&quot;Courier New&quot;&gt;{B.tipo := if (E.tipo = log) {&lt;/font&gt;&lt;/div&gt;&lt;div&gt;&lt;font color=&quot;#ff0080&quot; style=&quot;font-size: 14px;&quot; face=&quot;Courier New&quot;&gt;then S.tipo&amp;nbsp;&lt;/font&gt;&lt;/div&gt;&lt;div&gt;&lt;span style=&quot;font-size: 14px; color: rgb(255, 0, 128); font-family: &amp;quot;Courier New&amp;quot;; background-color: initial;&quot;&gt;} else {&lt;/span&gt;&lt;/div&gt;&lt;div&gt;&lt;span style=&quot;font-size: 14px; color: rgb(255, 0, 128); font-family: &amp;quot;Courier New&amp;quot;; background-color: initial;&quot;&gt;Error(&#39;En las sentencias condicionales, se necesita&lt;/span&gt;&lt;/div&gt;&lt;div&gt;&lt;span style=&quot;font-size: 14px; color: rgb(255, 0, 128); font-family: &amp;quot;Courier New&amp;quot;; background-color: initial;&quot;&gt;una condicion logica, en vez de E.tipo&#39;)&lt;/span&gt;&lt;/div&gt;&lt;div&gt;&lt;span style=&quot;font-size: 14px; color: rgb(255, 0, 128); font-family: &amp;quot;Courier New&amp;quot;; background-color: initial;&quot;&gt;tipo_err&lt;/span&gt;&lt;/div&gt;&lt;div&gt;&lt;span style=&quot;font-size: 14px; color: rgb(255, 0, 128); font-family: &amp;quot;Courier New&amp;quot;; background-color: initial;&quot;&gt;}}&lt;/span&gt;&lt;/div&gt;&lt;div&gt;&lt;span style=&quot;font-size: 14px; color: rgb(255, 0, 128); font-family: &amp;quot;Courier New&amp;quot;; background-color: initial;&quot;&gt;&lt;br&gt;&lt;/span&gt;&lt;/div&gt;&lt;div&gt;&lt;font style=&quot;font-size: 14px;&quot; color=&quot;#0000ff&quot; face=&quot;Courier New&quot;&gt;B -&amp;gt; S &lt;/font&gt;&lt;font color=&quot;#ff0080&quot; style=&quot;font-size: 14px;&quot; face=&quot;Courier New&quot;&gt;{B.tipo := S.tipo}&lt;/font&gt;&lt;/div&gt;&lt;div&gt;&lt;font color=&quot;#ff0080&quot; style=&quot;font-size: 14px;&quot; face=&quot;Courier New&quot;&gt;&lt;br&gt;&lt;/font&gt;&lt;/div&gt;&lt;div&gt;&lt;font style=&quot;font-size: 14px;&quot; color=&quot;#0000ff&quot; face=&quot;Courier New&quot;&gt;F -&amp;gt; function F1&amp;nbsp;&lt;/font&gt;&lt;font color=&quot;#ff0080&quot; style=&quot;font-size: 14px;&quot; face=&quot;Courier New&quot;&gt;{TSL := CrearTS(), TSA := TSL, desplL := 0}&amp;nbsp;&lt;/font&gt;&lt;/div&gt;&lt;div&gt;&lt;span style=&quot;color: rgb(0, 0, 255); font-family: &amp;quot;Courier New&amp;quot;; font-size: 14px; background-color: initial;&quot;&gt;F2&lt;/span&gt;&lt;span style=&quot;font-family: &amp;quot;Courier New&amp;quot;; font-size: 14px; background-color: initial;&quot;&gt;&lt;font color=&quot;#ff0080&quot;&gt;&amp;nbsp;{&lt;/font&gt;&lt;/span&gt;&lt;span style=&quot;font-size: 14px; color: rgb(255, 0, 128); font-family: &amp;quot;Courier New&amp;quot;; background-color: initial;&quot;&gt;insertaTipoRetTS(F2.pos, F1.tipo)&lt;/span&gt;&lt;/div&gt;&lt;div&gt;&lt;font style=&quot;font-size: 14px;&quot; color=&quot;#ff0080&quot; face=&quot;Courier New&quot;&gt;insertaEtiqTS(F2.pos)}&lt;/font&gt;&lt;/div&gt;&lt;div&gt;&lt;font style=&quot;font-size: 14px;&quot; color=&quot;#0000ff&quot; face=&quot;Courier New&quot;&gt;F3 &lt;/font&gt;&lt;font color=&quot;#ff0080&quot; style=&quot;font-size: 14px;&quot; face=&quot;Courier New&quot;&gt;{insertaTipoParamsTS (F2.pos, F3.tipo)&lt;/font&gt;&lt;/div&gt;&lt;div&gt;&lt;font color=&quot;#ff0080&quot; style=&quot;font-size: 14px;&quot; face=&quot;Courier New&quot;&gt;insertaModoParamsTS(F2.pos, modo_valor}&amp;nbsp;&lt;/font&gt;&lt;/div&gt;&lt;div&gt;&lt;font style=&quot;font-size: 14px;&quot; color=&quot;#0000ff&quot; face=&quot;Courier New&quot;&gt;{ C } &lt;/font&gt;&lt;font color=&quot;#ff0080&quot; style=&quot;font-size: 14px;&quot; face=&quot;Courier New&quot;&gt;{if (C.tipo = tipo_err)&lt;/font&gt;&lt;/div&gt;&lt;div&gt;&lt;font color=&quot;#ff0080&quot; style=&quot;font-size: 14px;&quot; face=&quot;Courier New&quot;&gt;Error(..)&lt;/font&gt;&lt;/div&gt;&lt;div&gt;&lt;span style=&quot;color: rgb(255, 0, 128); font-family: &amp;quot;Courier New&amp;quot;; font-size: 14px; background-color: initial;&quot;&gt;F.tipo :=&lt;/span&gt;&lt;span style=&quot;color: rgb(255, 0, 128); font-family: &amp;quot;Courier New&amp;quot;; font-size: 14px; background-color: initial;&quot;&gt;&amp;nbsp;&lt;/span&gt;&lt;font color=&quot;#ff0080&quot; style=&quot;font-size: 14px;&quot; face=&quot;Courier New&quot;&gt;tipo_err&lt;/font&gt;&lt;/div&gt;&lt;div&gt;&lt;font color=&quot;#ff0080&quot; style=&quot;font-size: 14px;&quot; face=&quot;Courier New&quot;&gt;} else if (C.tipoRet != F1.tipo &amp;amp;&amp;amp; C.tipoRet != vacio) {&lt;/font&gt;&lt;/div&gt;&lt;div&gt;&lt;font color=&quot;#ff0080&quot; style=&quot;font-size: 14px;&quot; face=&quot;Courier New&quot;&gt;Error(&#39;La funcion debe devolver F1.tipo pero esta&lt;/font&gt;&lt;/div&gt;&lt;div&gt;&lt;font color=&quot;#ff0080&quot; style=&quot;font-size: 14px;&quot; face=&quot;Courier New&quot;&gt;devolviendo C.tipoRet&#39;)&lt;/font&gt;&lt;/div&gt;&lt;div&gt;&lt;span style=&quot;color: rgb(255, 0, 128); font-family: &amp;quot;Courier New&amp;quot;; font-size: 14px; background-color: initial;&quot;&gt;F.tipo :=&lt;/span&gt;&lt;span style=&quot;color: rgb(255, 0, 128); font-family: &amp;quot;Courier New&amp;quot;; font-size: 14px; background-color: initial;&quot;&gt;&amp;nbsp;&lt;/span&gt;&lt;font color=&quot;#ff0080&quot; style=&quot;font-size: 14px;&quot; face=&quot;Courier New&quot;&gt;tipo_err&lt;/font&gt;&lt;/div&gt;&lt;div&gt;&lt;font color=&quot;#ff0080&quot; style=&quot;font-size: 14px;&quot; face=&quot;Courier New&quot;&gt;} else {&lt;/font&gt;&lt;/div&gt;&lt;div&gt;&lt;span style=&quot;color: rgb(255, 0, 128); font-family: &amp;quot;Courier New&amp;quot;; font-size: 14px;&quot;&gt;F.tipo := (F3.tipo -&amp;gt; F1.tipo)&lt;/span&gt;&lt;/div&gt;&lt;div&gt;&lt;span style=&quot;color: rgb(255, 0, 128); font-family: &amp;quot;Courier New&amp;quot;; font-size: 14px;&quot;&gt;}&lt;/span&gt;&lt;/div&gt;&lt;div&gt;&lt;span style=&quot;font-size: 14px; color: rgb(255, 0, 128); font-family: &amp;quot;Courier New&amp;quot;; background-color: initial;&quot;&gt;destruirTS(TSL), TSA := TSG}&lt;/span&gt;&lt;/div&gt;&lt;div&gt;&lt;font style=&quot;font-size: 14px;&quot; color=&quot;#0000ff&quot; face=&quot;Courier New&quot;&gt;&lt;br&gt;&lt;/font&gt;&lt;/div&gt;&lt;div&gt;&lt;font style=&quot;font-size: 14px;&quot; color=&quot;#0000ff&quot; face=&quot;Courier New&quot;&gt;F1 -&amp;gt; H &lt;/font&gt;&lt;font color=&quot;#ff0080&quot; style=&quot;font-size: 14px;&quot; face=&quot;Courier New&quot;&gt;{F1.tipo := H.tipo}&lt;/font&gt;&lt;/div&gt;&lt;div&gt;&lt;font style=&quot;font-size: 14px;&quot; color=&quot;#0000ff&quot; face=&quot;Courier New&quot;&gt;&lt;br&gt;&lt;/font&gt;&lt;/div&gt;&lt;div&gt;&lt;font style=&quot;font-size: 14px;&quot; color=&quot;#0000ff&quot; face=&quot;Courier New&quot;&gt;F2 -&amp;gt; id &lt;/font&gt;&lt;font color=&quot;#ff0080&quot; style=&quot;font-size: 14px;&quot; face=&quot;Courier New&quot;&gt;{F2.pos = id.pos}&lt;/font&gt;&lt;/div&gt;&lt;div&gt;&lt;br&gt;&lt;/div&gt;&lt;div&gt;&lt;font style=&quot;font-size: 14px;&quot; color=&quot;#0000ff&quot; face=&quot;Courier New&quot;&gt;F3 -&amp;gt; ( A )&lt;/font&gt;&lt;/div&gt;&lt;div&gt;&lt;font style=&quot;font-size: 14px;&quot; color=&quot;#0000ff&quot; face=&quot;Courier New&quot;&gt;C -&amp;gt; B C&lt;/font&gt;&lt;/div&gt;&lt;div&gt;&lt;font style=&quot;font-size: 14px;&quot; color=&quot;#0000ff&quot; face=&quot;Courier New&quot;&gt;C -&amp;gt; lambda&lt;/font&gt;&lt;/div&gt;&lt;div&gt;&lt;font style=&quot;font-size: 14px;&quot; color=&quot;#0000ff&quot; face=&quot;Courier New&quot;&gt;&lt;br&gt;&lt;/font&gt;&lt;/div&gt;&lt;div&gt;&lt;font style=&quot;font-size: 14px;&quot; color=&quot;#0000ff&quot; face=&quot;Courier New&quot;&gt;H -&amp;gt; T &lt;/font&gt;&lt;font color=&quot;#ff0080&quot; style=&quot;font-size: 14px;&quot; face=&quot;Courier New&quot;&gt;{H.tipo := T.tipo}&lt;/font&gt;&lt;/div&gt;&lt;div&gt;&lt;font color=&quot;#ff0080&quot; style=&quot;font-size: 14px;&quot; face=&quot;Courier New&quot;&gt;&lt;br&gt;&lt;/font&gt;&lt;/div&gt;&lt;div&gt;&lt;font style=&quot;font-size: 14px;&quot; color=&quot;#0000ff&quot; face=&quot;Courier New&quot;&gt;H -&amp;gt; void &lt;/font&gt;&lt;font color=&quot;#ff0080&quot; style=&quot;font-size: 14px;&quot; face=&quot;Courier New&quot;&gt;{H.tipo := vacio}&lt;/font&gt;&lt;/div&gt;&lt;div&gt;&lt;font style=&quot;font-size: 14px;&quot; color=&quot;#0000ff&quot; face=&quot;Courier New&quot;&gt;&lt;br&gt;&lt;/font&gt;&lt;/div&gt;&lt;div&gt;&lt;font style=&quot;font-size: 14px;&quot; color=&quot;#0000ff&quot; face=&quot;Courier New&quot;&gt;A -&amp;gt; T id &lt;/font&gt;&lt;font color=&quot;#ff0080&quot; style=&quot;font-size: 14px;&quot; face=&quot;Courier New&quot;&gt;{insertaTipoTS(id.pos, T.tipo)}&amp;nbsp;&lt;/font&gt;&lt;/div&gt;&lt;div&gt;&lt;font style=&quot;font-size: 14px;&quot; color=&quot;#0000ff&quot; face=&quot;Courier New&quot;&gt;K &lt;/font&gt;&lt;font color=&quot;#ff0080&quot; style=&quot;font-size: 14px;&quot; face=&quot;Courier New&quot;&gt;{A.tipo := T.tipo x K.tipo}&lt;/font&gt;&lt;font style=&quot;font-size: 14px;&quot; color=&quot;#0000ff&quot; face=&quot;Courier New&quot;&gt;&amp;nbsp;&amp;nbsp;&lt;/font&gt;&lt;/div&gt;&lt;div&gt;&lt;font style=&quot;font-size: 14px;&quot; color=&quot;#0000ff&quot; face=&quot;Courier New&quot;&gt;&lt;br&gt;&lt;/font&gt;&lt;/div&gt;&lt;div&gt;&lt;font style=&quot;font-size: 14px;&quot; color=&quot;#0000ff&quot; face=&quot;Courier New&quot;&gt;A -&amp;gt; void &lt;/font&gt;&lt;font color=&quot;#ff0080&quot; style=&quot;font-size: 14px;&quot; face=&quot;Courier New&quot;&gt;{A.tipo := vacio}&lt;/font&gt;&lt;/div&gt;&lt;div&gt;&lt;font style=&quot;font-size: 14px;&quot; color=&quot;#0000ff&quot; face=&quot;Courier New&quot;&gt;&lt;br&gt;&lt;/font&gt;&lt;/div&gt;&lt;div&gt;&lt;font style=&quot;font-size: 14px;&quot; color=&quot;#0000ff&quot; face=&quot;Courier New&quot;&gt;K -&amp;gt; , T id&amp;nbsp;&lt;/font&gt;&lt;span style=&quot;color: rgb(255, 0, 128); font-family: &amp;quot;Courier New&amp;quot;; font-size: 14px; background-color: initial;&quot;&gt;{insertaTipoTS(id.pos, T.tipo)}&lt;/span&gt;&lt;/div&gt;&lt;div&gt;&lt;font style=&quot;font-size: 14px;&quot; color=&quot;#0000ff&quot; face=&quot;Courier New&quot;&gt;K&lt;sub&gt;1&lt;/sub&gt;&amp;nbsp;&lt;/font&gt;&lt;span style=&quot;color: rgb(255, 0, 128); font-family: &amp;quot;Courier New&amp;quot;; font-size: 14px; background-color: initial;&quot;&gt;{K.tipo := T.tipo x K&lt;sub&gt;1&lt;/sub&gt;.tipo}&lt;/span&gt;&lt;/div&gt;&lt;div&gt;&lt;span style=&quot;color: rgb(255, 0, 128); font-family: &amp;quot;Courier New&amp;quot;; font-size: 14px; background-color: initial;&quot;&gt;&lt;br&gt;&lt;/span&gt;&lt;/div&gt;&lt;div&gt;&lt;font style=&quot;font-size: 14px;&quot; color=&quot;#0000ff&quot; face=&quot;Courier New&quot;&gt;K -&amp;gt; lambda &lt;/font&gt;&lt;font color=&quot;#ff0080&quot; style=&quot;font-size: 14px;&quot; face=&quot;Courier New&quot;&gt;{}&lt;/font&gt;&lt;/div&gt;&lt;div&gt;&lt;font style=&quot;font-size: 14px;&quot; color=&quot;#0000ff&quot; face=&quot;Courier New&quot;&gt;&lt;br&gt;&lt;/font&gt;&lt;/div&gt;&lt;div&gt;&lt;font style=&quot;font-size: 14px;&quot; color=&quot;#0000ff&quot; face=&quot;Courier New&quot;&gt;I -&amp;gt; else { C } &lt;/font&gt;&lt;font color=&quot;#ff0080&quot; style=&quot;font-size: 14px;&quot; face=&quot;Courier New&quot;&gt;{I.tipo := C.tipo, I.tipoRet := C.tipoRet}&lt;/font&gt;&lt;/div&gt;&lt;div&gt;&lt;font style=&quot;font-size: 14px;&quot; color=&quot;#0000ff&quot; face=&quot;Courier New&quot;&gt;&lt;br&gt;&lt;/font&gt;&lt;/div&gt;&lt;div&gt;&lt;font style=&quot;font-size: 14px;&quot; color=&quot;#0000ff&quot; face=&quot;Courier New&quot;&gt;I -&amp;gt; lambda &lt;/font&gt;&lt;font color=&quot;#ff0080&quot; style=&quot;font-size: 14px;&quot; face=&quot;Courier New&quot;&gt;{I.tipo := tipo_ok, I.tipoRet := vacio}&lt;/font&gt;&lt;/div&gt;" style="text;html=1;align=center;verticalAlign=middle;resizable=0;points=[];autosize=1;strokeColor=none;fillColor=none;" parent="1" vertex="1">
          <mxGeometry x="105" y="2820" width="560" height="1260" as="geometry" />
        </mxCell>
      </root>
    </mxGraphModel>
  </diagram>
</mxfile>
